<svg width="1200" height="750" viewBox="0 0 1200 750" xmlns="http://www.w3.org/2000/svg">
  <defs>
    <linearGradient id="hf-bg" x1="0%" y1="0%" x2="100%" y2="100%">
      <stop offset="0%" stop-color="#0f172a" />
      <stop offset="100%" stop-color="#1e1b4b" />
    </linearGradient>
    <linearGradient id="hf-accent" x1="0%" y1="0%" x2="100%" y2="0%">
      <stop offset="0%" stop-color="#4f46e5" />
      <stop offset="100%" stop-color="#7c3aed" />
    </linearGradient>
  </defs>
  <rect width="1200" height="750" fill="url(#hf-bg)"/>
  <!-- Top Bar -->
  <rect x="0" y="0" width="1200" height="64" fill="#1e293b" opacity="0.95"/>
  <circle cx="36" cy="32" r="14" fill="url(#hf-accent)"/>
  <text x="64" y="38" fill="#f8fafc" font-family="-apple-system, BlinkMacSystemFont, 'Segoe UI', Roboto, sans-serif" font-size="18" font-weight="700">HotelFlow Operations PMS</text>
  <rect x="1020" y="18" width="140" height="30" rx="6" fill="#4f46e5" opacity="0.2"/>
  <text x="1090" y="38" fill="#818cf8" font-family="sans-serif" font-size="12" font-weight="600" text-anchor="middle">Live Sync Active</text>
  
  <!-- Sidebar -->
  <rect x="0" y="64" width="220" height="686" fill="#0b0f19"/>
  <rect x="16" y="86" width="188" height="36" rx="6" fill="#4f46e5" opacity="0.18"/>
  <text x="54" y="109" fill="#c7d2fe" font-family="sans-serif" font-size="14" font-weight="600">Front Desk &amp; Rooms</text>
  <text x="54" y="153" fill="#94a3b8" font-family="sans-serif" font-size="14">Housekeeping Grid</text>
  <text x="54" y="197" fill="#94a3b8" font-family="sans-serif" font-size="14">Guest Folios</text>
  <text x="54" y="241" fill="#94a3b8" font-family="sans-serif" font-size="14">Revenue &amp; ADR</text>
  
  <!-- Metrics KPI Row -->
  <g transform="translate(244, 86)">
    <rect width="216" height="96" rx="10" fill="#1e293b" stroke="#334155"/>
    <text x="20" y="32" fill="#94a3b8" font-family="sans-serif" font-size="12" font-weight="600">OCCUPANCY RATE</text>
    <text x="20" y="70" fill="#f8fafc" font-family="sans-serif" font-size="28" font-weight="800">89.4%</text>
    <text x="140" y="70" fill="#34d399" font-family="sans-serif" font-size="13" font-weight="600">+12.5%</text>
  </g>
  <g transform="translate(476, 86)">
    <rect width="216" height="96" rx="10" fill="#1e293b" stroke="#334155"/>
    <text x="20" y="32" fill="#94a3b8" font-family="sans-serif" font-size="12" font-weight="600">CHECK-INS TODAY</text>
    <text x="20" y="70" fill="#f8fafc" font-family="sans-serif" font-size="28" font-weight="800">42 / 48</text>
  </g>
  <g transform="translate(708, 86)">
    <rect width="216" height="96" rx="10" fill="#1e293b" stroke="#334155"/>
    <text x="20" y="32" fill="#94a3b8" font-family="sans-serif" font-size="12" font-weight="600">AVERAGE DAILY RATE</text>
    <text x="20" y="70" fill="#f8fafc" font-family="sans-serif" font-size="28" font-weight="800">$218.00</text>
  </g>
  <g transform="translate(940, 86)">
    <rect width="216" height="96" rx="10" fill="#1e293b" stroke="#334155"/>
    <text x="20" y="32" fill="#94a3b8" font-family="sans-serif" font-size="12" font-weight="600">ROOMS READY</text>
    <text x="20" y="70" fill="#38bdf8" font-family="sans-serif" font-size="28" font-weight="800">114 / 120</text>
  </g>

  <!-- Room Timeline Board -->
  <rect x="244" y="202" width="912" height="518" rx="12" fill="#1e293b" stroke="#334155"/>
  <rect x="244" y="202" width="912" height="48" rx="12" fill="#243248"/>
  <text x="268" y="232" fill="#f1f5f9" font-family="sans-serif" font-size="15" font-weight="700">Room Allocation &amp; Reservation Board (Next 7 Days)</text>
  
  <!-- Grid lines & Booking Blocks -->
  <line x1="380" y1="250" x2="380" y2="720" stroke="#334155" stroke-dasharray="4"/>
  <line x1="530" y1="250" x2="530" y2="720" stroke="#334155" stroke-dasharray="4"/>
  <line x1="680" y1="250" x2="680" y2="720" stroke="#334155" stroke-dasharray="4"/>
  <line x1="830" y1="250" x2="830" y2="720" stroke="#334155" stroke-dasharray="4"/>
  <line x1="980" y1="250" x2="980" y2="720" stroke="#334155" stroke-dasharray="4"/>
  
  <rect x="264" y="270" width="96" height="44" rx="6" fill="#0f172a"/>
  <text x="280" y="297" fill="#cbd5e1" font-family="sans-serif" font-size="13" font-weight="600">Deluxe 101</text>
  <rect x="390" y="272" width="380" height="40" rx="8" fill="url(#hf-accent)"/>
  <text x="410" y="297" fill="#ffffff" font-family="sans-serif" font-size="13" font-weight="600">Alexander Wright (4 nights • Paid)</text>

  <rect x="264" y="330" width="96" height="44" rx="6" fill="#0f172a"/>
  <text x="280" y="357" fill="#cbd5e1" font-family="sans-serif" font-size="13" font-weight="600">Suite 204</text>
  <rect x="540" y="332" width="410" height="40" rx="8" fill="#3b82f6"/>
  <text x="560" y="357" fill="#ffffff" font-family="sans-serif" font-size="13" font-weight="600">Elena Rostova (Executive Suite • VIP)</text>

  <rect x="264" y="390" width="96" height="44" rx="6" fill="#0f172a"/>
  <text x="280" y="417" fill="#cbd5e1" font-family="sans-serif" font-size="13" font-weight="600">King 305</text>
  <rect x="390" y="392" width="260" height="40" rx="8" fill="#059669"/>
  <text x="410" y="417" fill="#ffffff" font-family="sans-serif" font-size="13" font-weight="600">Marcus Chen (Direct Booking)</text>

  <rect x="264" y="450" width="96" height="44" rx="6" fill="#0f172a"/>
  <text x="280" y="477" fill="#cbd5e1" font-family="sans-serif" font-size="13" font-weight="600">King 306</text>
  <rect x="690" y="452" width="390" height="40" rx="8" fill="#8b5cf6"/>
  <text x="710" y="477" fill="#ffffff" font-family="sans-serif" font-size="13" font-weight="600">Nordic Tech Summit Group</text>
</svg>
